<svg width="187" height="222" viewBox="0 0 187 222" fill="none" xmlns="http://www.w3.org/2000/svg">
<rect width="6.08109" height="6.06996" rx="1.34409" fill="white"/>
<rect x="24.0811" width="6.08109" height="6.06996" rx="1.34409" fill="white"/>
<rect x="48.1621" width="6.08109" height="6.06996" rx="1.34409" fill="white"/>
<rect x="72.2432" width="6.08109" height="6.06996" rx="1.34409" fill="white"/>
<rect x="96.3242" width="6.08109" height="6.06996" rx="1.34409" fill="white"/>
<rect x="120.405" width="6.08109" height="6.06996" rx="1.34409" fill="white"/>
<rect x="144.486" width="6.08109" height="6.06996" rx="1.34409" fill="white"/>
<rect x="168.567" width="6.08109" height="6.06996" rx="1.34409" fill="white"/>
<rect y="24.2798" width="6.08109" height="6.06996" rx="1.34409" fill="white"/>
<rect x="24.0811" y="24.2798" width="6.08109" height="6.06996" rx="1.34409" fill="white"/>
<rect x="48.1621" y="24.2798" width="6.08109" height="6.06996" rx="1.34409" fill="white"/>
<rect x="72.2432" y="24.2798" width="6.08109" height="6.06996" rx="1.34409" fill="white"/>
<rect x="96.3242" y="24.2798" width="6.08109" height="6.06996" rx="1.34409" fill="white"/>
<rect x="120.405" y="24.2798" width="6.08109" height="6.06996" rx="1.34409" fill="white"/>
<rect x="144.486" y="24.2798" width="6.08109" height="6.06996" rx="1.34409" fill="white"/>
<rect x="168.567" y="24.2798" width="6.08109" height="6.06996" rx="1.34409" fill="white"/>
<rect y="48.5596" width="6.08109" height="6.06996" rx="1.34409" fill="white"/>
<rect x="24.0811" y="48.5596" width="6.08109" height="6.06996" rx="1.34409" fill="white"/>
<rect x="48.1621" y="48.5596" width="6.08109" height="6.06996" rx="1.34409" fill="white"/>
<rect x="72.2432" y="48.5596" width="6.08109" height="6.06996" rx="1.34409" fill="white"/>
<rect x="96.3242" y="48.5596" width="6.08109" height="6.06996" rx="1.34409" fill="white"/>
<rect x="120.405" y="48.5596" width="6.08109" height="6.06996" rx="1.34409" fill="white"/>
<rect x="144.486" y="48.5596" width="6.08109" height="6.06996" rx="1.34409" fill="white"/>
<rect x="168.567" y="48.5596" width="6.08109" height="6.06996" rx="1.34409" fill="white"/>
<rect y="72.8395" width="6.08109" height="6.06996" rx="1.34409" fill="white"/>
<rect x="24.0811" y="72.8396" width="6.08109" height="6.06996" rx="1.34409" fill="white"/>
<rect x="48.1621" y="72.8396" width="6.08109" height="6.06996" rx="1.34409" fill="white"/>
<rect x="72.2432" y="72.8396" width="6.08109" height="6.06996" rx="1.34409" fill="white"/>
<rect x="96.3242" y="72.8396" width="6.08109" height="6.06996" rx="1.34409" fill="white"/>
<rect x="120.405" y="72.8396" width="6.08109" height="6.06996" rx="1.34409" fill="white"/>
<rect x="144.486" y="72.8396" width="6.08109" height="6.06996" rx="1.34409" fill="white"/>
<rect x="168.567" y="72.8396" width="6.08109" height="6.06996" rx="1.34409" fill="white"/>
<rect y="97.1194" width="6.08109" height="6.06996" rx="1.34409" fill="white"/>
<rect x="24.0811" y="97.1194" width="6.08109" height="6.06996" rx="1.34409" fill="white"/>
<rect x="48.1621" y="97.1194" width="6.08109" height="6.06996" rx="1.34409" fill="white"/>
<rect x="72.2432" y="97.1194" width="6.08109" height="6.06996" rx="1.34409" fill="white"/>
<rect x="96.3242" y="97.1194" width="6.08109" height="6.06996" rx="1.34409" fill="white"/>
<rect x="120.405" y="97.1194" width="6.08109" height="6.06996" rx="1.34409" fill="white"/>
<rect x="144.486" y="97.1194" width="6.08109" height="6.06996" rx="1.34409" fill="white"/>
<rect x="168.567" y="97.1194" width="6.08109" height="6.06996" rx="1.34409" fill="white"/>
<rect y="121.399" width="6.08109" height="6.06995" rx="1.34409" fill="white"/>
<rect x="24.0811" y="121.399" width="6.08109" height="6.06995" rx="1.34409" fill="white"/>
<rect x="48.1621" y="121.399" width="6.08109" height="6.06995" rx="1.34409" fill="white"/>
<rect x="72.2432" y="121.399" width="6.08109" height="6.06995" rx="1.34409" fill="white"/>
<rect x="96.3242" y="121.399" width="6.08109" height="6.06995" rx="1.34409" fill="white"/>
<rect x="120.405" y="121.399" width="6.08109" height="6.06995" rx="1.34409" fill="white"/>
<rect x="144.486" y="121.399" width="6.08109" height="6.06995" rx="1.34409" fill="white"/>
<rect x="168.567" y="121.399" width="6.08109" height="6.06995" rx="1.34409" fill="white"/>
<rect y="145.679" width="6.08109" height="6.06998" rx="1.34409" fill="white"/>
<rect y="169.096" width="6.08109" height="6.06995" rx="1.34409" fill="white"/>
<rect x="24.0811" y="145.679" width="6.08109" height="6.06998" rx="1.34409" fill="white"/>
<rect x="24.0811" y="169.096" width="6.08109" height="6.06995" rx="1.34409" fill="white"/>
<rect x="48.1621" y="145.679" width="6.08109" height="6.06998" rx="1.34409" fill="white"/>
<rect x="48.1621" y="169.096" width="6.08109" height="6.06995" rx="1.34409" fill="white"/>
<rect x="72.2432" y="145.679" width="6.08109" height="6.06998" rx="1.34409" fill="white"/>
<rect x="72.2432" y="169.096" width="6.08109" height="6.06995" rx="1.34409" fill="white"/>
<rect x="96.3242" y="145.679" width="6.08109" height="6.06998" rx="1.34409" fill="white"/>
<rect x="96.3242" y="169.096" width="6.08109" height="6.06995" rx="1.34409" fill="white"/>
<rect x="120.405" y="145.679" width="6.08109" height="6.06998" rx="1.34409" fill="white"/>
<rect x="120.405" y="169.096" width="6.08109" height="6.06995" rx="1.34409" fill="white"/>
<rect x="144.486" y="145.679" width="6.08109" height="6.06998" rx="1.34409" fill="white"/>
<rect x="144.486" y="169.096" width="6.08109" height="6.06995" rx="1.34409" fill="white"/>
<rect x="168.567" y="145.679" width="6.08109" height="6.06998" rx="1.34409" fill="white"/>
<rect x="168.567" y="169.096" width="6.08109" height="6.06995" rx="1.34409" fill="white"/>
</svg>
