<svg width="514" height="408" viewBox="0 0 514 408" fill="none" xmlns="http://www.w3.org/2000/svg">
<rect x="84.2793" y="61.5075" width="429" height="311" rx="10" fill="white" fill-opacity="0.1"/>
<circle cx="115.279" cy="91.5075" r="5" fill="#FC165B"/>
<circle cx="131.279" cy="91.5075" r="5" fill="#FCA016"/>
<circle cx="147.279" cy="91.5075" r="5" fill="#16FCA9"/>
<g filter="url(#filter0_f_202_405)">
<circle cx="25.9406" cy="185.169" r="15.7675" transform="rotate(-34.7184 25.9406 185.169)" fill="url(#paint0_linear_202_405)"/>
</g>
<g filter="url(#filter1_f_202_405)">
<circle cx="344.22" cy="18.4482" r="8.22721" transform="rotate(-34.7184 344.22 18.4482)" fill="url(#paint1_linear_202_405)"/>
</g>
<g filter="url(#filter2_f_202_405)">
<circle cx="440.607" cy="376.771" r="21.0298" transform="rotate(-34.7184 440.607 376.771)" fill="url(#paint2_linear_202_405)"/>
</g>
<path d="M193.779 125.508C193.779 124.127 194.899 123.008 196.279 123.008H402.279C403.66 123.008 404.779 124.127 404.779 125.508V372.008H193.779V125.508Z" fill="white" fill-opacity="0.1" stroke="#44C7FF"/>
<path d="M397.279 284.508L406.706 307.134L410.053 297.281L419.906 293.934L397.279 284.508Z" stroke="white" stroke-width="2" stroke-linecap="round" stroke-linejoin="round"/>
<rect x="211.279" y="178.507" width="176" height="87" rx="3" fill="white" fill-opacity="0.1"/>
<rect x="110.279" y="130" width="21" height="21" rx="3" fill="white" fill-opacity="0.1"/>
<rect x="110.279" y="163" width="21" height="21" rx="3" fill="white" fill-opacity="0.1"/>
<rect x="110.279" y="196" width="21" height="21" rx="3" fill="white" fill-opacity="0.1"/>
<rect x="110.279" y="229" width="21" height="21" rx="3" fill="white" fill-opacity="0.1"/>
<rect x="141.279" y="130" width="21" height="21" rx="3" fill="white" fill-opacity="0.1"/>
<rect x="425.279" y="124" width="56" height="55" rx="3" fill="white" fill-opacity="0.1"/>
<rect x="425.279" y="196" width="56" height="21" rx="3" fill="white" fill-opacity="0.1"/>
<rect x="425.279" y="234" width="56" height="43" rx="3" fill="white" fill-opacity="0.1"/>
<rect x="110.279" y="266" width="52" height="59" rx="3" fill="white" fill-opacity="0.1"/>
<rect x="141.279" y="163" width="21" height="21" rx="3" fill="white" fill-opacity="0.1"/>
<rect x="141.279" y="196" width="21" height="21" rx="3" fill="white" fill-opacity="0.1"/>
<rect x="141.279" y="229" width="21" height="21" rx="3" fill="white" fill-opacity="0.1"/>
<rect x="211.279" y="274.508" width="84" height="87" rx="3" fill="white" fill-opacity="0.1"/>
<rect x="303.279" y="274.508" width="84" height="87" rx="3" fill="white" fill-opacity="0.1"/>
<rect width="58" height="15" rx="3" transform="matrix(1 0 0 -1 270.279 158.507)" fill="white" fill-opacity="0.1"/>
<rect width="15" height="15" rx="3" transform="matrix(1 0 0 -1 211.279 158.507)" fill="white" fill-opacity="0.1"/>
<rect x="0.5" y="-0.5" width="7" height="7" transform="matrix(1 0 0 -1 401.279 125.508)" fill="white" stroke="#44C7FF"/>
<rect x="0.5" y="-0.5" width="7" height="7" transform="matrix(1 0 0 -1 189.279 125.508)" fill="white" stroke="#44C7FF"/>
<defs>
<filter id="filter0_f_202_405" x="0.171875" y="159.4" width="51.5376" height="51.5379" filterUnits="userSpaceOnUse" color-interpolation-filters="sRGB">
<feFlood flood-opacity="0" result="BackgroundImageFix"/>
<feBlend mode="normal" in="SourceGraphic" in2="BackgroundImageFix" result="shape"/>
<feGaussianBlur stdDeviation="5" result="effect1_foregroundBlur_202_405"/>
</filter>
<filter id="filter1_f_202_405" x="325.992" y="0.220245" width="36.4561" height="36.4559" filterUnits="userSpaceOnUse" color-interpolation-filters="sRGB">
<feFlood flood-opacity="0" result="BackgroundImageFix"/>
<feBlend mode="normal" in="SourceGraphic" in2="BackgroundImageFix" result="shape"/>
<feGaussianBlur stdDeviation="5" result="effect1_foregroundBlur_202_405"/>
</filter>
<filter id="filter2_f_202_405" x="409.575" y="345.739" width="62.0635" height="62.0633" filterUnits="userSpaceOnUse" color-interpolation-filters="sRGB">
<feFlood flood-opacity="0" result="BackgroundImageFix"/>
<feBlend mode="normal" in="SourceGraphic" in2="BackgroundImageFix" result="shape"/>
<feGaussianBlur stdDeviation="5" result="effect1_foregroundBlur_202_405"/>
</filter>
<linearGradient id="paint0_linear_202_405" x1="25.9406" y1="169.401" x2="25.9406" y2="200.936" gradientUnits="userSpaceOnUse">
<stop stop-color="#FF81A6"/>
<stop offset="1" stop-color="#FC165B"/>
</linearGradient>
<linearGradient id="paint1_linear_202_405" x1="344.22" y1="10.221" x2="344.22" y2="26.6754" gradientUnits="userSpaceOnUse">
<stop stop-color="#81ACFF"/>
<stop offset="1" stop-color="#1656FC"/>
</linearGradient>
<linearGradient id="paint2_linear_202_405" x1="440.607" y1="355.741" x2="440.607" y2="397.8" gradientUnits="userSpaceOnUse">
<stop stop-color="#66FFA3"/>
<stop offset="1" stop-color="#009C3E"/>
</linearGradient>
</defs>
</svg>
